<svg height='300px' width='300px'  fill="#ffffff" xmlns="http://www.w3.org/2000/svg" data-name="Layer 1" viewBox="0 0 128 128" x="0px" y="0px"><title>Miscellaneous 17 final</title><path d="M24.87,27.2a2,2,0,0,0,0,2.83L42.53,47.7a2,2,0,0,0,2.83-2.83L27.69,27.2A2,2,0,0,0,24.87,27.2Z"></path><path d="M81.95,36.95V12.28a2,2,0,1,0-4,0V36.95a2,2,0,0,0,4,0Z"></path><path d="M50.94,1.52a2,2,0,1,0-3.88,1l6,24a2,2,0,1,0,3.88-1Z"></path><path d="M24.57,72.8c6.28,9,6.23,13.06,6.19,17C30.46,118.44,50.31,127.29,62.1,128c.9.05,1.77.08,2.64.08a38.56,38.56,0,0,0,29-12.63l6.55-7.22.11-.13,3.25-3.59a9.06,9.06,0,0,0-4.5-15.26A8.14,8.14,0,0,0,92.2,79a8.38,8.38,0,0,0,.5-2.8,9,9,0,0,0-7.24-8.85L96.31,56.46a9.05,9.05,0,1,0-13-12.59C71.42,56.56,56.64,71,50.81,73.37c-3.4,1.4-4.22.31-6.85-4a31.62,31.62,0,0,0-7.16-8.9c-3.46-2.81-7.53-2.89-10.9-.22C22.09,63.26,21.54,68.44,24.57,72.8ZM97.22,93.06a5,5,0,0,1,3.57,1.48,5.09,5.09,0,0,1-.07,7.22l-3.17,3.49a4.6,4.6,0,0,1-5.18-.87l-.18-.19A4.63,4.63,0,0,1,91.81,98l5-5Zm-3-8.94a4.14,4.14,0,0,1,.24,5.62,2,2,0,0,0-.23.25l0,0-5.74,5.74a4.62,4.62,0,0,1-4.78-1l-.24-.24a4.67,4.67,0,0,1-.28-6.16c.8-.62,4.15-3.27,5.93-4.8A4.17,4.17,0,0,1,94.2,84.12Zm-7-11.51a5,5,0,0,1,1.48,3.57,6.33,6.33,0,0,1-2.1,4.22c-1.22,1.06-3.85,3.17-5.79,4.69a4.8,4.8,0,0,1-4.73-1.24l-.13-.13a4.86,4.86,0,0,1,0-6.87l4.7-4.7A5,5,0,0,1,87.21,72.6ZM28.39,63.34c1.92-1.52,3.85-1.46,5.89.19a27.89,27.89,0,0,1,6.26,7.86A21.25,21.25,0,0,0,44,76.14a2,2,0,0,0,.12.16c.17.18,4,4.37.1,10.46a2,2,0,0,0,3.37,2.15,13,13,0,0,0,1.84-11,11.37,11.37,0,0,0,2.88-.79c7.87-3.23,26.32-22.38,33.9-30.47a5,5,0,0,1,3.6-1.6,5.07,5.07,0,0,1,3.66,1.48,5.05,5.05,0,0,1,0,7.15L73.11,74a8.86,8.86,0,0,0,0,12.56l.11.11a8.78,8.78,0,0,0,5.11,2.51,8.7,8.7,0,0,0,2.28,8.17l.08.07.08.08A8.63,8.63,0,0,0,86.87,100a8.59,8.59,0,0,0,2.48,7l.15.17a8.68,8.68,0,0,0,4.21,2.32l-3,3.31-.08.09A35.08,35.08,0,0,1,62.34,124a31.27,31.27,0,0,1-14.44-5c.31,0,.63,0,.95,0l.85,0c5-.32,9.57-3.35,13.65-9a2,2,0,0,0-3.25-2.33c-3.33,4.64-6.9,7.12-10.62,7.37-5.19.34-9.18-3.81-9.24-3.87a2,2,0,0,0-.29-.25c-3.13-4.94-5.28-11.72-5.18-21.09.06-5.29-.42-10.07-6.91-19.35C26.35,68.36,25.94,65.3,28.39,63.34Z"></path><polygon points="59.53 40.78 55.11 41.42 58.31 44.54 57.55 48.94 61.5 46.86 65.45 48.94 64.69 44.54 67.89 41.42 63.47 40.78 61.5 36.78 59.53 40.78"></polygon><polygon points="65.96 16.73 67.31 19.77 68.91 16.84 72.22 16.5 69.93 14.08 70.63 10.82 67.62 12.25 64.73 10.58 65.16 13.89 62.68 16.12 65.96 16.73"></polygon><polygon points="39.35 15.39 36.94 13.1 36.58 16.41 33.65 18 36.69 19.36 37.3 22.64 39.53 20.16 42.84 20.6 41.17 17.71 42.61 14.71 39.35 15.39"></polygon></svg>
