<svg width="180" height="46" viewBox="0 0 180 46" fill="none" xmlns="http://www.w3.org/2000/svg">
<path d="M0.08 24.688V20.848H5.36C6.384 20.848 7.216 20.768 7.856 20.608C8.528 20.416 9.04 20.128 9.392 19.744C9.744 19.36 9.968 18.864 10.064 18.256C10.192 17.648 10.224 16.912 10.16 16.048L9.68 8.128C9.616 6.88 9.776 5.76 10.16 4.768C10.544 3.776 11.12 2.944 11.888 2.272C12.656 1.568 13.6 1.04 14.72 0.687997C15.872 0.335998 17.152 0.159998 18.56 0.159998H20.72V4H18.56C17.024 4 15.856 4.352 15.056 5.056C14.288 5.728 13.936 6.752 14 8.128L14.48 16.048C14.544 16.912 14.464 17.744 14.24 18.544C14.016 19.312 13.664 20 13.184 20.608C12.736 21.184 12.16 21.648 11.456 22C10.752 22.352 9.92 22.544 8.96 22.576V22.816C9.92 22.848 10.752 23.056 11.456 23.44C12.192 23.792 12.784 24.272 13.232 24.88C13.68 25.488 14.016 26.192 14.24 26.992C14.464 27.792 14.544 28.624 14.48 29.488L14 37.312C13.936 38.688 14.288 39.712 15.056 40.384C15.856 41.088 17.024 41.44 18.56 41.44H20.72V45.28H18.56C17.152 45.28 15.872 45.104 14.72 44.752C13.6 44.4 12.656 43.872 11.888 43.168C11.12 42.496 10.544 41.664 10.16 40.672C9.776 39.68 9.616 38.56 9.68 37.312L10.16 29.488C10.224 28.624 10.192 27.888 10.064 27.28C9.968 26.672 9.744 26.176 9.392 25.792C9.04 25.408 8.544 25.136 7.904 24.976C7.264 24.784 6.416 24.688 5.36 24.688H0.08ZM160.537 0.159998C161.945 0.159998 163.209 0.335998 164.329 0.687997C165.481 1.04 166.441 1.568 167.209 2.272C167.977 2.944 168.553 3.776 168.937 4.768C169.321 5.76 169.481 6.88 169.417 8.128L168.937 16C168.905 16.864 168.937 17.6 169.033 18.208C169.129 18.816 169.353 19.312 169.705 19.696C170.057 20.08 170.553 20.368 171.193 20.56C171.833 20.72 172.681 20.8 173.737 20.8H179.017V24.64H173.737C172.713 24.64 171.865 24.736 171.193 24.928C170.553 25.088 170.057 25.36 169.705 25.744C169.353 26.128 169.129 26.624 169.033 27.232C168.937 27.84 168.905 28.576 168.937 29.44L169.417 37.312C169.481 38.56 169.321 39.68 168.937 40.672C168.553 41.664 167.977 42.496 167.209 43.168C166.441 43.872 165.481 44.4 164.329 44.752C163.209 45.104 161.945 45.28 160.537 45.28H158.377V41.44H160.537C162.073 41.44 163.225 41.088 163.993 40.384C164.793 39.712 165.161 38.688 165.097 37.312L164.617 29.44C164.585 28.576 164.665 27.76 164.857 26.992C165.081 26.192 165.417 25.504 165.865 24.928C166.345 24.32 166.937 23.84 167.641 23.488C168.345 23.136 169.177 22.944 170.137 22.912V22.672C169.177 22.64 168.329 22.448 167.593 22.096C166.889 21.712 166.313 21.216 165.865 20.608C165.417 20 165.081 19.296 164.857 18.496C164.665 17.696 164.585 16.864 164.617 16L165.097 8.128C165.161 6.752 164.793 5.728 163.993 5.056C163.225 4.352 162.073 4 160.537 4H158.377V0.159998H160.537Z" fill="white"/>
<path d="M37.62 28.98H43.02C43.212 30.78 44.508 31.68 46.908 31.68C48.108 31.68 49.02 31.428 49.644 30.924C50.268 30.396 50.58 29.7 50.58 28.836C50.58 28.068 50.328 27.408 49.824 26.856C49.344 26.304 48.672 25.932 47.808 25.74L45.072 25.128C42.72 24.6 40.932 23.664 39.708 22.32C38.508 20.952 37.908 19.212 37.908 17.1C37.908 15.996 38.112 14.988 38.52 14.076C38.952 13.164 39.552 12.384 40.32 11.736C41.088 11.088 42.012 10.584 43.092 10.224C44.196 9.864 45.432 9.684 46.8 9.684C49.368 9.684 51.42 10.32 52.956 11.592C54.516 12.864 55.38 14.628 55.548 16.884H50.148C50.052 16.092 49.692 15.48 49.068 15.048C48.468 14.592 47.664 14.364 46.656 14.364C45.6 14.364 44.772 14.616 44.172 15.12C43.596 15.624 43.308 16.26 43.308 17.028C43.308 17.7 43.536 18.288 43.992 18.792C44.448 19.272 45.108 19.608 45.972 19.8L48.852 20.448C51.18 20.976 52.944 21.936 54.144 23.328C55.368 24.696 55.98 26.448 55.98 28.584C55.98 29.736 55.764 30.792 55.332 31.752C54.9 32.688 54.276 33.504 53.46 34.2C52.668 34.872 51.708 35.4 50.58 35.784C49.452 36.168 48.192 36.36 46.8 36.36C45.456 36.36 44.232 36.192 43.128 35.856C42.024 35.496 41.076 35.004 40.284 34.38C39.492 33.732 38.868 32.952 38.412 32.04C37.956 31.128 37.692 30.108 37.62 28.98ZM57.9459 10.08H62.3739L63.7059 27.288C63.7539 27.648 63.7779 28.116 63.7779 28.692C63.7779 29.268 63.7779 29.832 63.7779 30.384C63.7779 31.032 63.7659 31.704 63.7419 32.4H64.2099C64.2099 31.704 64.2219 31.032 64.2459 30.384C64.2699 29.832 64.2939 29.268 64.3179 28.692C64.3419 28.116 64.3779 27.648 64.4259 27.288L66.3699 10.08H70.4739L72.3459 27.288C72.3939 27.648 72.4299 28.116 72.4539 28.692C72.4779 29.268 72.5139 29.832 72.5619 30.384C72.5859 31.032 72.6099 31.704 72.6339 32.4H73.1019C73.0779 31.704 73.0659 31.032 73.0659 30.384C73.0659 29.832 73.0659 29.268 73.0659 28.692C73.0899 28.116 73.1139 27.648 73.1379 27.288L74.3619 10.08H78.8259L76.1979 36H70.5819L68.8179 18.9C68.7699 18.468 68.7339 17.94 68.7099 17.316C68.7099 16.692 68.6979 16.08 68.6739 15.48C68.6739 14.784 68.6739 14.064 68.6739 13.32H68.1699C68.1699 14.064 68.1579 14.784 68.1339 15.48C68.1339 16.08 68.1219 16.692 68.0979 17.316C68.0739 17.94 68.0379 18.468 67.9899 18.9L66.0459 36H60.5379L57.9459 10.08ZM81.8719 14.76V10.08H98.0719V14.76H92.6719V31.32H98.0719V36H81.8719V31.32H87.2719V14.76H81.8719ZM112.098 10.08C113.514 10.08 114.786 10.272 115.914 10.656C117.042 11.016 118.002 11.556 118.794 12.276C119.586 12.972 120.198 13.824 120.63 14.832C121.062 15.816 121.278 16.932 121.278 18.18C121.278 19.404 121.062 20.52 120.63 21.528C120.198 22.536 119.586 23.388 118.794 24.084C118.002 24.78 117.042 25.32 115.914 25.704C114.786 26.088 113.514 26.28 112.098 26.28H108.426V36H103.026V10.08H112.098ZM108.426 21.78H112.098C113.298 21.78 114.222 21.456 114.87 20.808C115.542 20.136 115.878 19.26 115.878 18.18C115.878 17.1 115.542 16.236 114.87 15.588C114.222 14.916 113.298 14.58 112.098 14.58H108.426V21.78ZM125.224 36V10.08H141.604V14.76H130.624V20.376H140.344V25.056H130.624V31.32H141.604V36H125.224Z" fill="white"/>
</svg>
